<svg xmlns="http://www.w3.org/2000/svg" viewBox="0 0 140 140"><circle fill="#FFF" cx="70" cy="70" r="70"/><path fill="#FBBC05" d="M47.7 69.8c0-2.6.4-5.1 1.2-7.4l-13-10.1c-2.7 5.3-4.2 11.2-4.2 17.5s1.5 12.3 4.2 17.5l13-10.1c-.8-2.3-1.2-4.8-1.2-7.4z"/><path fill="#4285F4" d="M70.8 62.8v14.8h21c-.5 3.7-2.8 8.6-7.8 12l12.6 9.8c7.4-6.8 11.6-16.9 11.6-28.7 0-3.2-.4-5.5-.9-7.9H70.8z"/><path fill="#34A853" d="M70.8 93.3c-10.2 0-18.8-6.9-21.9-16.1l-13 10.1c6.4 12.8 19.6 21.5 34.9 21.5 10.5 0 19.4-3.5 25.9-9.4L84 89.6c-3.2 2.2-7.5 3.7-13.2 3.7z"/><path fill="#EA4335" d="M70.8 30.8c-15.3 0-28.5 8.8-34.9 21.5l13 10.1c3.1-9.2 11.7-16.1 21.9-16.1 7.5 0 12.3 3.3 14.8 5.7l11.3-11c-6.8-6.4-15.6-10.2-26.1-10.2z"/></svg>